<?xml version="1.0" encoding="UTF-8"?>
<svg id="Camada_2" data-name="Camada 2" xmlns="http://www.w3.org/2000/svg" viewBox="0 0 362.42 74.41">
  <defs>
    <style>
      .cls-1 {
        fill: #fff;
      }
    </style>
  </defs>
  <g id="Camada_1-2" data-name="Camada 1">
    <g>
      <path class="cls-1" d="M86.74,51.77l9.9-2.16c1.93,10.69,8.3,16.16,20.02,16.16,10.81,0,15.59-4.21,15.59-10.58s-4.32-9.78-17.98-12.17c-18.66-3.3-24.69-10.24-24.69-20.59,0-11.6,8.42-19,25.14-19s23.67,8.08,26.28,20.25l-10.35,2.05c-2.05-9.1-5.8-13.77-16.38-13.77-9.78,0-14.34,3.75-14.34,9.9,0,5.69,3.19,9.56,18.09,12.29,19.8,3.75,24.69,10.81,24.69,20.37,0,12.06-7.74,19.91-26.4,19.91-19.57-.11-27.76-9.44-29.58-22.64Z"/>
      <path class="cls-1" d="M151.25,28.1h-8.08v-8.19h8.08V5.01h9.9v14.9h16.95v8.19h-16.95v27.99c0,6.03,2.28,9.1,8.19,9.1,2.84,0,5.23-.57,8.08-1.37l1.25,8.76c-3.64,1.14-6.48,1.82-11.38,1.82-11.15,0-16.04-7.28-16.04-17.18v-29.13Z"/>
      <path class="cls-1" d="M219.29,59.16h-.91c-2.96,9.44-10.01,15.24-19.23,15.24-11.95,0-17.29-7.85-17.29-19.46V19.91h9.9v32.65c0,7.4,3.07,12.74,11.6,12.74,9.44,0,15.7-5.92,15.7-15.02v-30.38h9.9v53.13h-9.67v-13.88Z"/>
      <path class="cls-1" d="M274.13,58.82h-.68c-2.62,9.1-9.22,15.59-19.23,15.59-12.97,0-20.37-9.78-20.37-27.76s7.62-28.1,20.59-28.1c10.47,0,16.38,6.37,19,15.47h.68V0h9.9v73.04h-9.9v-14.22ZM274.13,48.7v-4.1c0-10.13-6.03-17.07-15.59-17.07s-14.9,6.14-14.9,19.11,4.78,18.89,14.9,18.89c9.44,0,15.59-6.48,15.59-16.84Z"/>
      <path class="cls-1" d="M292.56,9.67V.68h11.38v8.99h-11.38ZM293.24,73.04V19.91h9.9v53.13h-9.9Z"/>
      <path class="cls-1" d="M309.17,46.31c0-17.41,10.47-27.76,26.62-27.76s26.62,10.35,26.62,27.76-9.78,28.1-26.62,28.1-26.62-10.81-26.62-28.1ZM319.07,46.19c0,11.95,5.35,19.57,16.61,19.57s16.84-7.62,16.84-19.57-5.8-19.11-16.72-19.11-16.72,7.17-16.72,19.11Z"/>
    </g>
    <path class="cls-1" d="M17.34,12.1c.43,4.11.88,8.26,3.01,11.9,7.9,13.57,22.24,14.13,35.91,11.22,4.99-1.06,9.69,2.71,9.69,7.81v27.14H0c0-6.12,3.84-11.58,9.59-13.67,6.82-2.48,13.66-4.89,20.7-6.6,5.15-1.25,11.37-2.37,16.64-1.6,1.84.27,3.55.95,5.34,1.42-2.91-4.97-9.34-6.14-14.65-6.15-6,0-11.92,1.47-17.7,3.01-1.19.32-2.39.64-3.58.97C8.13,49.84,0,43.66,0,35.13V4.23s65.95,0,65.95,0v8.07c0,5.13-3.71,9.54-8.77,10.34-.03,0-.06,0-.09.01-11.58,1.85-27.84,3.01-36.47-6.56-1.11-1.23-2.02-2.55-3.04-3.83-.07-.08-.1-.2-.25-.16Z"/>
  </g>
</svg>
